<?xml version="1.0" encoding="iso-8859-1"?>
<!-- Generator: Adobe Illustrator 19.0.0, SVG Export Plug-In . SVG Version: 6.00 Build 0)  -->
<svg version="1.1" id="Layer_1" xmlns="http://www.w3.org/2000/svg" xmlns:xlink="http://www.w3.org/1999/xlink" x="0px" y="0px"
	 viewBox="0 0 512.001 512.001" style="enable-background:new 0 0 512.001 512.001;" xml:space="preserve">
<g>
	<g>
		<path d="M134.261,86.087c-9.792-5.782-16.751-11.562-35.967-11.562c-18.549,0-25.6,5.451-35.434,11.06
			c-1.06,3.458-1.634,7.129-1.634,10.935c0,20.58,16.683,37.263,37.263,37.263s37.263-16.683,37.263-37.263
			C135.753,92.898,135.226,89.399,134.261,86.087z"/>
	</g>
</g>
<g>
	<g>
		<path d="M146.849,145.662c-52.412,0-53.116,0-96.717,0c-23.344,0-42.432,18.992-42.548,42.335L6.92,320.088
			c-0.05,9.931,7.959,18.021,17.889,18.071c0.03,0,0.061,0,0.093,0c9.887,0,17.928-7.991,17.977-17.889l0.664-132.09
			c0.01-1.968,1.61-3.555,3.576-3.55c1.967,0.004,3.558,1.601,3.558,3.568l0.008,302.228c0,11.915,9.659,21.576,21.576,21.576
			c11.917,0,21.576-9.659,21.576-21.576V317.968h9.316v172.457c0,11.915,9.659,21.576,21.576,21.576
			c11.917,0,21.576-9.659,21.576-21.576c0-285.33-0.383-121.944-0.392-302.292c0-2.066,1.666-3.746,3.732-3.763
			s3.76,1.635,3.793,3.703l-0.122,132.09c-0.009,9.93,8.033,17.987,17.964,17.996c0.006,0,0.011,0,0.017,0
			c9.922,0,17.971-8.04,17.979-17.963l0.123-132.199C189.281,164.654,170.193,145.662,146.849,145.662z M78.957,181.622
			c0.183-2.826,2.511-5.07,5.384-5.07c2.854,0,5.201,2.257,5.384,5.07c0.213,3.289-2.383,5.768-5.384,5.768
			c-2.993,0-5.419-2.426-5.419-5.419C78.922,181.852,78.949,181.74,78.957,181.622z M84.341,239.61
			c-2.993,0-5.419-2.426-5.419-5.419c0-2.993,2.426-5.419,5.419-5.419c2.993,0,5.419,2.426,5.419,5.419
			C89.76,237.184,87.333,239.61,84.341,239.61z M84.341,213.5c-2.993,0-5.419-2.426-5.419-5.419c0-2.993,2.426-5.419,5.419-5.419
			c2.993,0,5.419,2.426,5.419,5.419C89.76,211.074,87.333,213.5,84.341,213.5z M106.865,181.622c0.183-2.826,2.511-5.07,5.384-5.07
			c2.873,0,5.201,2.243,5.384,5.07c0.213,3.289-2.383,5.768-5.384,5.768C109.253,187.39,106.652,184.915,106.865,181.622z
			 M112.249,239.61c-2.993,0-5.419-2.426-5.419-5.419c0-2.993,2.426-5.419,5.419-5.419c2.993,0,5.419,2.426,5.419,5.419
			C117.667,237.184,115.241,239.61,112.249,239.61z M112.249,213.5c-2.993,0-5.419-2.426-5.419-5.419
			c0-2.993,2.426-5.419,5.419-5.419c2.993,0,5.419,2.426,5.419,5.419C117.667,211.074,115.241,213.5,112.249,213.5z"/>
	</g>
</g>
<g>
	<g>
		<path d="M119.178,0c-3.451,0-6.719,0.765-9.649,2.134c-6.975,3.257-15.034,3.253-22.01-0.003C84.59,0.765,81.323,0,77.874,0
			C65.226,0,54.971,10.254,54.971,22.902c0,8.053,4.292,15.575,11.271,19.704v26.305c7.71-4.399,19.205-7.193,32.051-7.193
			c13.104,0,24.805,2.905,32.515,7.457V42.606c6.97-4.125,11.271-11.643,11.271-19.704C142.08,10.254,131.827,0,119.178,0z"/>
	</g>
</g>
<g>
	<g>
		<path d="M504.844,388.778l-13.61-54.165c-1.311-5.215-5.999-8.872-11.376-8.872h-79.97c1.13-1.865,1.793-4.047,1.793-6.386
			c0-6.826-5.534-12.36-12.36-12.36h-23.88V287.85h55.239c3.837,0,6.947-3.11,6.947-6.947v-57.069c0-3.837-3.11-6.947-6.947-6.947
			h-22.988v-42.995c0-3.837-3.11-6.947-6.947-6.947h-14.876v-50.003c0-3.837-3.11-6.947-6.947-6.947h-44.045
			c-3.837,0-6.947,3.11-6.947,6.947v50.003h-14.876c-3.837,0-6.947,3.11-6.947,6.947v42.995H273.12c-3.837,0-6.947,3.11-6.947,6.947
			v57.069c0,3.837,3.11,6.947,6.947,6.947h55.239v19.144h-23.88c-6.826,0-12.36,5.534-12.36,12.36c0,2.341,0.662,4.521,1.793,6.386
			h-79.97c-5.377,0-10.067,3.656-11.377,8.872l-13.61,54.165c-1.235,4.915,2.49,9.677,7.547,9.677h19.71v101.184
			c0,6.826,5.534,12.36,12.36,12.36s12.36-5.534,12.36-12.36V398.455h211.937v101.184c0,6.826,5.534,12.36,12.36,12.36
			s12.36-5.534,12.36-12.36V398.455h19.71C502.366,398.455,506.075,393.68,504.844,388.778z"/>
	</g>
</g>
<g>
</g>
<g>
</g>
<g>
</g>
<g>
</g>
<g>
</g>
<g>
</g>
<g>
</g>
<g>
</g>
<g>
</g>
<g>
</g>
<g>
</g>
<g>
</g>
<g>
</g>
<g>
</g>
<g>
</g>
</svg>
