<?xml version="1.0" encoding="iso-8859-1"?>
<!-- Generator: Adobe Illustrator 18.0.0, SVG Export Plug-In . SVG Version: 6.00 Build 0)  -->
<!DOCTYPE svg PUBLIC "-//W3C//DTD SVG 1.1//EN" "http://www.w3.org/Graphics/SVG/1.1/DTD/svg11.dtd">
<svg version="1.1" id="Capa_1" xmlns="http://www.w3.org/2000/svg" xmlns:xlink="http://www.w3.org/1999/xlink" x="0px" y="0px"
	 viewBox="0 0 297 297" style="enable-background:new 0 0 297 297;" xml:space="preserve">
<g>
	<path d="M242.309,210.424c-14.535,0-26.359,11.84-26.359,26.398c0,14.564,11.824,26.412,26.359,26.412
		c14.541,0,26.362-11.848,26.362-26.412C268.671,222.264,256.85,210.424,242.309,210.424z"/>
	<path d="M64.565,210.424c-14.542,0-26.366,11.84-26.366,26.398c0,14.564,11.824,26.412,26.366,26.412
		c14.534,0,26.358-11.848,26.358-26.412C90.924,222.264,79.1,210.424,64.565,210.424z"/>
	<path d="M257.182,99.523c-1.391-4.191-5.313-7.023-9.732-7.023H234.99v43.828h34.384L257.182,99.523z"/>
	<path d="M290.21,152.73h-55.22v41.928c2.379-0.408,4.825-0.637,7.318-0.637c22.033,0,40.225,16.77,42.515,38.225h1.93
		c5.657,0,10.247-4.59,10.247-10.254v-59.623C297,157.92,294.164,154.152,290.21,152.73z"/>
	<path d="M218.199,44.02c0-5.664-4.59-10.254-10.248-10.254H10.247C4.59,33.766,0,38.355,0,44.02v177.973
		c0,5.664,4.59,10.254,10.247,10.254h11.8c2.291-21.455,20.482-38.225,42.519-38.225c22.029,0,40.217,16.77,42.508,38.225h80.925
		h11.8c1.38-12.918,8.521-24.123,18.796-31.008L218.199,44.02z"/>
</g>
<g>
</g>
<g>
</g>
<g>
</g>
<g>
</g>
<g>
</g>
<g>
</g>
<g>
</g>
<g>
</g>
<g>
</g>
<g>
</g>
<g>
</g>
<g>
</g>
<g>
</g>
<g>
</g>
<g>
</g>
</svg>
